<svg height="512" viewBox="0 0 128 128" width="512" xmlns="http://www.w3.org/2000/svg"><g><path d="m102.661 118.29h-77.322a13 13 0 0 1 -12-8l-6.672-16.004h114.666l-6.673 16.007a13 13 0 0 1 -11.999 7.997z" fill="#4f4c5f"/><path d="m123.088 84.738-3.972-1.532a9 9 0 0 0 -6.476 0l-3.9 1.5a9.006 9.006 0 0 1 -6.476 0l-3.9-1.5a9 9 0 0 0 -6.476 0l-3.9 1.5a9.006 9.006 0 0 1 -6.476 0l-3.9-1.5a9 9 0 0 0 -6.476 0l-3.895 1.5a9 9 0 0 1 -6.477 0l-3.9-1.5a9 9 0 0 0 -6.476 0l-3.9 1.5a9 9 0 0 1 -6.475 0l-3.9-1.5a9 9 0 0 0 -6.474 0l-3.9 1.5a9 9 0 0 1 -6.474 0l-3.898-1.506a8.992 8.992 0 0 0 -6.471 0l-3.983 1.538a4.94 4.94 0 0 0 -3.163 4.609 4.939 4.939 0 0 0 4.939 4.939h114.622a4.939 4.939 0 0 0 4.939-4.939 4.938 4.938 0 0 0 -3.162-4.609z" fill="#ffb400"/><path d="m8.9 83.2a8.992 8.992 0 0 1 6.471 0l3.909 1.506a9 9 0 0 0 6.474 0l3.9-1.5a9 9 0 0 1 6.474 0l3.9 1.5a9 9 0 0 0 6.475 0l3.9-1.5a9 9 0 0 1 6.476 0l3.9 1.5a9 9 0 0 0 6.477 0l3.895-1.5a9 9 0 0 1 6.476 0l3.9 1.5a9.006 9.006 0 0 0 6.476 0l3.9-1.5a9 9 0 0 1 6.476 0l3.9 1.5a9.006 9.006 0 0 0 6.476 0l3.9-1.5a9 9 0 0 1 6.476 0l3.305 1.274c-3.119-18.839-28.088-33.523-58.436-33.523s-55.318 14.684-58.421 33.525z" fill="#ffe600"/><g fill="#ffb400"><path d="m67.687 66.083c0 3.314-1.65 5-3.687 5s-3.688-1.685-3.688-5 3.688-7 3.688-7 3.687 3.686 3.687 7z"/><path d="m83.308 63.048c2.343 2.344 2.367 4.7.927 6.143s-3.8 1.415-6.142-.928-2.343-7.557-2.343-7.557 5.215-.001 7.558 2.342z"/><path d="m44.692 63.048c-2.343 2.344-2.367 4.7-.927 6.143s3.8 1.415 6.142-.928 2.343-7.557 2.343-7.557-5.215-.001-7.558 2.342z"/></g><path d="m58.231 42.119 2.69-7.886a7.6 7.6 0 0 0 0-4.891l-1.381-4.051-.034-.1a10.9 10.9 0 0 1 5.434-13.072l4.829-2.409-2.69 7.89a7.6 7.6 0 0 0 0 4.892l1.38 4.049.034.1a10.9 10.9 0 0 1 -5.443 13.08z" fill="#ffe7cf"/><path d="m39.484 34.992 2.1-6.152a5.926 5.926 0 0 0 0-3.815l-1.077-3.161-.027-.079a8.5 8.5 0 0 1 4.239-10.2l3.765-1.875-2.1 6.158a5.929 5.929 0 0 0 0 3.816l1.076 3.159.027.079a8.5 8.5 0 0 1 -4.246 10.2z" fill="#ffe7cf"/><path d="m79.516 34.992 2.1-6.152a5.926 5.926 0 0 0 0-3.815l-1.077-3.161-.027-.079a8.5 8.5 0 0 1 4.239-10.2l3.765-1.875-2.1 6.158a5.929 5.929 0 0 0 0 3.816l1.076 3.159.027.079a8.5 8.5 0 0 1 -4.246 10.2z" fill="#ffe7cf"/></g></svg>